<svg xmlns="http://www.w3.org/2000/svg"
              fill="none"
              viewBox="0 0 24 24"
              stroke="#fff"
            >
            <defs>
            <symbol id="delete" viewBox="0 0 24 24">
              <path
                stroke-linecap="round"
                stroke-linejoin="round"
                stroke-width="2"
                d="M10 14l2-2m0 0l2-2m-2 2l-2-2m2 2l2 2m7-2a9 9 0 11-18 0 9 9 0 0118 0z"
              />
          </symbol>
          <symbol id="edit" viewBox="0 0 24 24">
 
    <path
      stroke-linecap="round"
      stroke-linejoin="round"
      stroke-width="2"
      d="M15.232 5.232l3.536 3.536m-2.036-5.036a2.5 2.5 0 113.536 3.536L6.5 21.036H3v-3.572L16.732 3.732z"
    />

            </symbol>
            <symbol id="plus" viewBox="0 0 24 24"><path
                  stroke-linecap="round"
                  stroke-linejoin="round"
                  stroke-width="2"
                  d="M12 9v3m0 0v3m0-3h3m-3 0H9m12 0a9 9 0 11-18 0 9 9 0 0118 0z"
                /></symbol>
    </defs>
  </svg>