            <svg
              xmlns="http://www.w3.org/2000/svg"
              viewBox="0 0 192.756 192.756"
              
            >
            <defs>
            <symbol id="icon-autobots" viewBox="0 0 192.756 192.756">
              <path
                fill-rule="evenodd"
                clip-rule="evenodd"
                fill="transparent"
                d="M0 0h192.756v192.756H0V0z"
              />
              <path
                d="M74.63 56.749L42.399 40.096 38.233 19.28H17.646l9.607 54.879 21.393 14.808H80.64l-6.01-32.218zm-6.484 3.122l.284 5.724-36.112-16.274-.473-5.866 36.301 16.416zm3.597 15.848v5.44L34.59 64.649l-.568-4.778 37.721 15.848z"
                fill-rule="evenodd"
                clip-rule="evenodd"
              />
              <path
                d="M144.914 36.926l2.887-13.483C112.588 11 78.085 10.527 44.245 22.118l2.319 13.814 47.613 24.175 50.737-23.181zm-49.412 7.049L75.198 29.924h40.845L95.502 43.975z"
                fill-rule="evenodd"
                clip-rule="evenodd"
              />
              <path
                d="M175.109 21.077h-21.061l-4.971 20.012-33.84 16.416-5.963 31.981h34.359l21.062-13.247 10.414-55.162zm-15.38 26.256v5.488l-36.396 14.288v-5.44l36.396-14.336zm-3.883 15.66v4.92L118.6 83.242V77.28l37.246-14.287zM41.879 102.26L40.27 89.534l-11.928-7.57 4.639 73.093 28.397 14.807.285-55.115-19.784-12.489zM67.342 171.71l5.49 3.879 7.289-24.175h28.35l7.525 23.892 6.248-3.36v-57.197l-12.732-11.732v39.266H80.641l-.52-39.266-12.779 11.732v56.961z"
                fill-rule="evenodd"
                clip-rule="evenodd"
              />
              <path
                fill-rule="evenodd"
                clip-rule="evenodd"
                d="M81.682 60.627l4.402 26.777v49.959h17.465V86.884l4.922-26.257-14.294 6.009-12.495-6.009zM83.765 156.618l-5.727 22.377h32.798l-6.529-22.377H83.765zM162.852 83.525l-13.538 9.368-.519 9.887-21.061 12.727v55.398l29.438-12.963 5.68-74.417z"
              />
              <path
                d="M40.27 89.534l-11.928-7.569 4.639 73.092 28.397 14.808.285-55.115-19.784-12.49-1.609-12.726zm113.779-68.457l-4.971 20.012-33.84 16.416-5.963 31.981h34.359l21.062-13.247 10.412-55.163h-21.059v.001zm1.797 46.836L118.6 83.242V77.28l37.246-14.287v4.92zm3.883-15.092l-36.396 14.288v-5.44l36.396-14.335v5.487zm-10.415 40.072l-.52 9.888-21.061 12.727v55.398l29.438-12.963 5.68-74.417-13.537 9.367zM68.146 59.871L31.845 43.455l.473 5.866L68.43 65.595l-.284-5.724zm76.768-22.945L94.177 60.107 46.564 35.932l-2.319-13.814C78.085 10.527 112.588 11 147.801 23.443l-2.887 13.483zM71.743 75.719L34.022 59.871l.568 4.778L71.743 81.16v-5.441zm14.341 11.685v49.959h17.464V86.884l4.922-26.257-14.293 6.009-12.495-6.009 4.402 26.777zM74.63 56.749l6.011 32.265H48.647L27.254 74.158l-9.607-54.879h20.587L42.4 40.095l32.23 16.654zm20.872-12.774l20.541-14.051H75.198l20.304 14.051zM67.342 171.71v-56.961l12.779-11.732.521 39.267h28.871v-39.267l12.732 11.732v57.197l-6.248 3.359-7.525-23.892h-28.35l-7.289 24.175-5.491-3.878zm10.696 7.285h32.798l-6.529-22.377H83.765l-5.727 22.377z"
                fill="none"
                stroke="#000"
                stroke-width="1.314"
                stroke-linecap="round"
                stroke-linejoin="round"
                stroke-miterlimit="2.613"
              />
              </symbol>
            
             <symbol id="icon-decepticons" viewBox="0 0 192.756 192.756">
              <path
                fill-rule="evenodd"
                clip-rule="evenodd"
                fill="transparent"
                d="M0 0h192.756v192.756H0V0z"
              />
              <path
                fill-rule="evenodd"
                clip-rule="evenodd"
                d="M32.506 153.751l53.629 23.155-58.449-82.772 4.82 59.617zM172.246 23.404l-12.324 16.533-37.799 11.169-1.807 11.551 34.455-8.869-.877 6.897-34.838 9.471-.549 7.282 34.018-8.541-.768 7.226-30.895 8.103c-3.285.821-6.354 2.682-9.312 5.528l-15.337 13.578-15.502-14.563c-2.356-2.135-5.04-3.722-8.107-4.707l-30.183-9.198-.876-7.226 32.866 9.635-1.205-8.103-33.743-10.236-.876-6.679 33.852 9.963-1.368-11.442-37.633-11.441L20.51 22.473l6.902 58.413 67.761 96.295 68.965-94.488 8.108-59.289zm-57.791 104.452l-10.572-21.351 44.316-13.248-33.744 34.599zM43.352 91.725l44.591 14.178-10.573 21.953-34.018-36.131zM158.113 154.954l5.752-59.89-58.777 81.569 53.025-21.679z"
              />
              <path
                d="M82.519 80.612l13.53 13.248 12.982-12.372 10.846-65.036-14.789 26.496h-16.27L73.152 15.576l9.367 65.036zm21.692-26.77L96.652 77.6l-7.833-23.758h15.392z"
                fill-rule="evenodd"
                clip-rule="evenodd"
              />
              <path
                d="M158.113 154.954l-53.025 21.679 58.777-81.568-5.752 59.889zM104.211 53.842H88.818L96.651 77.6l7.56-23.758zm-21.692 26.77l-9.367-65.036 15.666 27.372h16.27l14.789-26.496-10.846 65.036L96.049 93.86l-13.53-13.248zM43.352 91.725l34.018 36.131 10.573-21.953-44.591-14.178zm42.783 85.181L27.686 94.134l4.82 59.617 53.629 23.155zm17.748-70.4l44.316-13.248-33.744 34.599-10.572-21.351zm56.039-66.569l-37.799 11.169-1.807 11.551 34.455-8.869-.877 6.897-34.838 9.471-.549 7.282 34.018-8.541-.768 7.226-30.895 8.103c-3.285.821-6.354 2.682-9.312 5.528l-15.337 13.578-15.502-14.563c-2.356-2.135-5.04-3.722-8.107-4.707l-30.183-9.198-.876-7.226 32.866 9.635-1.205-8.103-33.743-10.236-.876-6.679 33.852 9.963-1.368-11.442-37.633-11.441L20.51 22.473l6.902 58.413 67.761 96.295 68.965-94.488 8.107-59.289-12.323 16.533z"
                fill="none"
                stroke="#000"
                stroke-width="1.52"
                stroke-linecap="round"
                stroke-linejoin="round"
                stroke-miterlimit="2.613"
              />
               </symbol>
               </defs>
            </svg>